# xmcd CD database file
#
# Track frame offsets:
#	150
#	13598
#	29012
#	43781
#	56249
#	71887
#	82144
#	93981
#	105668
#	118420
#	134238
#	147693
#
# Disc length: 2145 seconds
#
# Revision: 0
# Processed by: cddbd v1.5.1PL2 Copyright (c) Steve Scherf et al.
# Submitted via: CDex 1.50
#
DISCID=c5085f0c
DTITLE=Honi Phillips - But I Like It I Love It
DYEAR=2005
DGENRE=Country
TTITLE0=I'll Give You Something To Miss
TTITLE1=Take Your Time
TTITLE2=I Have Loved Me A Man
TTITLE3=As Usual
TTITLE4=Cool River
TTITLE5=Barefoot Boy
TTITLE6=His Turn To Cry
TTITLE7=Do You Want To Make Something Of It
TTITLE8=But I Like It I Love It
TTITLE9=Always Runnin'
TTITLE10=Tennessee Waltz
TTITLE11=Ordinary Heart
EXTD=YEAR: 2005
EXTT0=
EXTT1=
EXTT2=
EXTT3=
EXTT4=
EXTT5=
EXTT6=
EXTT7=
EXTT8=
EXTT9=
EXTT10=
EXTT11=
PLAYORDER=
